<?xml version="1.0" encoding="utf-8"?>
<!-- Generator: Adobe Illustrator 27.8.1, SVG Export Plug-In . SVG Version: 6.00 Build 0)  -->
<svg version="1.1" id="Layer_1" xmlns="http://www.w3.org/2000/svg" xmlns:xlink="http://www.w3.org/1999/xlink" x="0px" y="0px"
	 viewBox="0 0 200 200" style="enable-background:new 0 0 200 200;" xml:space="preserve">
<style type="text/css">
	.st0{fill:#DF9065;}
	.st1{fill:#E99A77;}
</style>
<polygon class="st0" points="0.5,61.2 0.5,138.7 22.2,138.7 22.2,108.3 52.8,108.3 52.8,138.7 74.6,138.7 74.6,61.2 52.8,61.2 
	52.8,90.4 22.3,90.4 22.3,61.2 "/>
<rect x="74.6" y="61.2" class="st1" width="58.3" height="16.6"/>
<polygon class="st1" points="74.6,95.2 74.6,138.7 95.9,138.7 95.9,112.1 133,112.2 133,95.2 "/>
<polygon class="st0" points="132.9,61.2 176.2,61.2 161.5,77.8 132.9,77.8 "/>
<polygon class="st0" points="186.4,61.2 199.5,61.2 199.5,74.7 145.7,138.8 132.9,138.8 132.9,125.4 "/>
<polygon class="st0" points="199.5,138.8 156.2,138.8 170.9,122.2 199.5,122.2 "/>
</svg>
